<?xml version="1.0" standalone="no"?>
<!DOCTYPE svg PUBLIC "-//W3C//DTD SVG 20010904//EN"
 "http://www.w3.org/TR/2001/REC-SVG-20010904/DTD/svg10.dtd">
<svg version="1.0" xmlns="http://www.w3.org/2000/svg"
 width="500.000000pt" height="500.000000pt" viewBox="0 0 500.000000 500.000000"
 preserveAspectRatio="xMidYMid meet">
<metadata>
Created by potrace 1.14, written by Peter Selinger 2001-2017
</metadata>
<g transform="translate(0.000000,500.000000) scale(0.100000,-0.100000)"
fill="#000000" stroke="none">
<path d="M1315 3700 l-29 -5 -1 -345 c0 -190 1 -353 3 -362 4 -15 32 -16 300
-17 164 0 306 0 318 0 l20 -1 0 -830 c-1 -457 2 -830 5 -830 4 0 166 159 361
353 254 252 356 360 360 380 3 15 6 393 6 838 0 698 -2 811 -14 816 -18 7
-1290 10 -1329 3z"/>
<path d="M2860 3315 c0 -212 3 -385 6 -385 3 0 18 12 33 28 15 15 65 61 111
102 46 41 95 86 110 100 28 26 195 178 214 195 7 6 39 35 71 65 161 148 258
235 276 248 10 7 19 17 19 23 0 5 -163 9 -420 9 l-420 0 0 -385z"/>
</g>
</svg>
